# xmcd
#
# Track frame offsets: 
#        150
#        13923
#        39313
#        61680
#        73218
#        98274
#        118497
#
# Disc length: 1838 seconds
#
# Revision: 0
# Processed by: cddbd v1.5.2PL0 Copyright (c) Steve Scherf et al.
# Submitted via: ExactAudioCopy v1.0b3
#
DISCID=58072c07
DTITLE=Bobby Moore and The Rhythm Aces - Dedication of Love
DYEAR=1976
DGENRE=Soul
TTITLE0=Love's Got A Hold On Me
TTITLE1=Grooviing With The Aces
TTITLE2=Sweet Sixteen
TTITLE3=What Is That You Got
TTITLE4=Love's Gonna Make Us Free
TTITLE5=Witch Doctor
TTITLE6=Nobody Knows The Trouble I've Seen
EXTD=
EXTT0=
EXTT1=
EXTT2=
EXTT3=
EXTT4=
EXTT5=
EXTT6=
PLAYORDER=
